# xmcd
#
# Track frame offsets:
# 150
# 20855
# 41257
# 55430
# 65935
# 80287
# 91845
# 104060
# 116417
# 126935
# 136632
# 147822
# 160015
# 173972
# 185420
# 201492
# 251477
# 263475
# 275682
# 288860
#
# Disc length: 4095 seconds
#
#
# Revision: 8
# Processed by: cddbd v1.5.1PL2 Copyright (c) Steve Scherf et al.
# Submitted via: FreeRIP 2.51 
#
DISCID=260ffd14
DTITLE=Creedence Clearwater Revival - Chronicle
DYEAR=1991
DGENRE=Rock
TTITLE0=Susie Q
TTITLE1=I Put A Spell On You
TTITLE2=Proud Mary
TTITLE3=Bad Moon Rising
TTITLE4=Lodi
TTITLE5=Green River
TTITLE6=Commotion
TTITLE7=Down On The Corner
TTITLE8=Fortunate Son
TTITLE9=Travelin' Band
TTITLE10=Who'll Stop The Rain
TTITLE11=Up Around The Bend
TTITLE12=Run Through The Jungle
TTITLE13=Lookin' Out My Back Door
TTITLE14=Long As I Can See The Light
TTITLE15=I Heard It Through The Grapevine
TTITLE16=Have You Ever Seen The Rain?
TTITLE17=Hey Tonight
TTITLE18=Sweet Hitch Hiker
TTITLE19=Someday Never Comes
EXTD=
EXTT0=
EXTT1=
EXTT2=
EXTT3=
EXTT4=
EXTT5=
EXTT6=
EXTT7=
EXTT8=
EXTT9=
EXTT10=
EXTT11=
EXTT12=
EXTT13=
EXTT14=
EXTT15=
EXTT16=
EXTT17=
EXTT18=
EXTT19=
PLAYORDER=
